<svg width="320" height="320" viewBox="0 0 320 320" fill="none" xmlns="http://www.w3.org/2000/svg">
<rect width="320" height="320" fill="white"/>
<rect x="47.6265" y="242.759" width="31.8795" height="20.3133" rx="10" fill="black" stroke="black" stroke-width="2"/>
<rect x="196.06" y="279.385" width="31.8795" height="20.3133" rx="10" fill="black" stroke="black" stroke-width="2"/>
<rect x="224.976" y="169.506" width="83.9277" height="20.3133" rx="10" fill="black" stroke="black" stroke-width="2"/>
<path d="M195.133 169.506H20.6747C15.3315 169.506 11 173.837 11 179.181V180.144C11 185.488 15.3315 189.819 20.6747 189.819H65.012C69.2511 189.819 72.6867 193.255 72.6867 197.494V198.458C72.6867 202.696 69.2511 206.132 65.012 206.132H35.1325C29.7893 206.132 25.4578 210.464 25.4578 215.807V216.771C25.4578 222.114 29.7893 226.446 35.1325 226.446H114.169C118.408 226.446 121.843 229.882 121.843 234.12V235.084C121.843 239.323 118.408 242.759 114.169 242.759H96.8193C91.4756 242.759 87.1446 247.09 87.1446 252.434V253.397C87.1446 258.741 91.4756 263.072 96.8193 263.072H114.169C118.408 263.072 121.843 266.508 121.843 270.747V271.711C121.843 275.95 118.408 279.385 114.169 279.385H110.313C104.97 279.385 100.639 283.716 100.639 289.06V290.024C100.639 295.368 104.97 299.699 110.313 299.699H179.711C185.054 299.699 189.386 295.368 189.386 290.024V289.06C189.386 283.716 185.054 279.385 179.711 279.385H161.398C157.159 279.385 153.723 275.95 153.723 271.711V270.747C153.723 266.508 157.159 263.072 161.398 263.072H262.602C267.946 263.072 272.277 258.741 272.277 253.397V252.434C272.277 247.09 267.946 242.759 262.602 242.759H220.193C215.954 242.759 212.518 239.323 212.518 235.084V234.12C212.518 229.882 215.954 226.446 220.193 226.446H287.663C293.006 226.446 297.337 222.114 297.337 216.771V215.807C297.337 210.464 293.006 206.132 287.663 206.132H175.855C171.616 206.132 168.181 202.696 168.181 198.458V197.494C168.181 193.255 171.616 189.819 175.855 189.819H195.133C200.476 189.819 204.807 185.488 204.807 180.144V179.181C204.807 173.837 200.476 169.506 195.133 169.506Z" fill="black" stroke="black" stroke-width="2"/>
<rect x="87.1445" y="23" width="31.8795" height="20.3133" rx="10" fill="black" stroke="black" stroke-width="2"/>
<rect x="240.398" y="59.6265" width="31.8795" height="20.3133" rx="10" fill="black" stroke="black" stroke-width="2"/>
<path d="M222.12 23H134.41C129.066 23 124.735 27.3315 124.735 32.6747V33.6386C124.735 38.9817 129.066 43.3133 134.41 43.3133H157.542C161.781 43.3133 165.217 46.7493 165.217 50.988V51.9518C165.217 56.1905 161.781 59.6265 157.542 59.6265H53.4458C48.1026 59.6265 43.7711 63.958 43.7711 69.3012V70.2651C43.7711 75.6083 48.1026 79.9398 53.4458 79.9398H101.639C105.878 79.9398 109.313 83.3758 109.313 87.6145V88.5783C109.313 92.817 105.878 96.253 101.639 96.253H27.4217C22.0785 96.253 17.747 100.584 17.747 105.928V106.892C17.747 112.235 22.0785 116.566 27.4217 116.566H141.157C145.396 116.566 148.831 120.002 148.831 124.241V125.205C148.831 129.444 145.396 132.88 141.157 132.88H20.6747C15.3315 132.88 11 137.211 11 142.554V143.518C11 148.862 15.3315 153.193 20.6747 153.193H299.229C304.573 153.193 308.904 148.862 308.904 143.518V142.554C308.904 137.211 304.573 132.88 299.229 132.88H224.048C219.809 132.88 216.374 129.444 216.374 125.205V124.241C216.374 120.002 219.809 116.566 224.048 116.566H291.518C296.862 116.566 301.193 112.235 301.193 106.892V105.928C301.193 100.585 296.862 96.253 291.518 96.253H200.916C196.677 96.253 193.241 92.817 193.241 88.5783V87.6145C193.241 83.3758 196.677 79.9398 200.916 79.9398H225.976C231.32 79.9398 235.651 75.6083 235.651 70.2651V69.3012C235.651 63.958 231.32 59.6265 225.976 59.6265H208.627C204.387 59.6265 200.952 56.1905 200.952 51.9518V50.988C200.952 46.7493 204.387 43.3133 208.627 43.3133H222.12C227.464 43.3133 231.795 38.9817 231.795 33.6386V32.6747C231.795 27.3315 227.464 23 222.12 23Z" fill="black" stroke="black" stroke-width="2"/>
<mask id="path-8-outside-1_7_1496" maskUnits="userSpaceOnUse" x="75.9551" y="76.9365" width="169" height="78" fill="black">
<rect fill="white" x="75.9551" y="76.9365" width="169" height="78"/>
<path fill-rule="evenodd" clip-rule="evenodd" d="M83.0503 133.876H141.152C145.943 133.876 149.827 129.993 149.827 125.202V124.238C149.827 119.447 145.943 115.563 141.152 115.563H92.1546C106.832 93.4865 131.931 78.9365 160.429 78.9365C171.813 78.9365 182.655 81.2584 192.506 85.4544C192.33 86.144 192.236 86.8666 192.236 87.6112V88.5751C192.236 93.366 196.12 97.2498 200.911 97.2498H212.06C218.487 102.472 224.106 108.648 228.703 115.563H224.043C219.252 115.563 215.369 119.447 215.369 124.238V125.202C215.369 129.993 219.252 133.876 224.043 133.876H237.808C239.842 139.708 241.235 145.841 241.903 152.19H78.9551C79.6232 145.841 81.0164 139.708 83.0503 133.876Z"/>
</mask>
<path fill-rule="evenodd" clip-rule="evenodd" d="M83.0503 133.876H141.152C145.943 133.876 149.827 129.993 149.827 125.202V124.238C149.827 119.447 145.943 115.563 141.152 115.563H92.1546C106.832 93.4865 131.931 78.9365 160.429 78.9365C171.813 78.9365 182.655 81.2584 192.506 85.4544C192.33 86.144 192.236 86.8666 192.236 87.6112V88.5751C192.236 93.366 196.12 97.2498 200.911 97.2498H212.06C218.487 102.472 224.106 108.648 228.703 115.563H224.043C219.252 115.563 215.369 119.447 215.369 124.238V125.202C215.369 129.993 219.252 133.876 224.043 133.876H237.808C239.842 139.708 241.235 145.841 241.903 152.19H78.9551C79.6232 145.841 81.0164 139.708 83.0503 133.876Z" fill="#9000F8"/>
<path d="M83.0503 133.876V131.876H81.6297L81.1619 133.218L83.0503 133.876ZM92.1546 115.563L90.4891 114.456L88.4232 117.563H92.1546V115.563ZM192.506 85.4544L194.444 85.9501L194.87 84.287L193.29 83.6143L192.506 85.4544ZM212.06 97.2498L213.322 95.6976L212.77 95.2498H212.06V97.2498ZM228.703 115.563V117.563H232.435L230.369 114.456L228.703 115.563ZM237.808 133.876L239.696 133.218L239.228 131.876H237.808V133.876ZM241.903 152.19V154.19H244.124L243.892 151.98L241.903 152.19ZM78.9551 152.19L76.9661 151.98L76.7336 154.19H78.9551V152.19ZM83.0503 135.876H141.152V131.876H83.0503V135.876ZM141.152 135.876C147.048 135.876 151.827 131.097 151.827 125.202H147.827C147.827 128.888 144.839 131.876 141.152 131.876V135.876ZM151.827 125.202V124.238H147.827V125.202H151.827ZM151.827 124.238C151.827 118.342 147.048 113.563 141.152 113.563V117.563C144.839 117.563 147.827 120.551 147.827 124.238H151.827ZM141.152 113.563H92.1546V117.563H141.152V113.563ZM93.8201 116.67C108.143 95.1277 132.629 80.9365 160.429 80.9365V76.9365C131.234 76.9365 105.521 91.8454 90.4891 114.456L93.8201 116.67ZM160.429 80.9365C171.539 80.9365 182.114 83.2021 191.723 87.2944L193.29 83.6143C183.195 79.3147 172.087 76.9365 160.429 76.9365V80.9365ZM190.569 84.9587C190.351 85.8089 190.236 86.698 190.236 87.6112H194.236C194.236 87.0352 194.309 86.4791 194.444 85.9501L190.569 84.9587ZM190.236 87.6112V88.5751H194.236V87.6112H190.236ZM190.236 88.5751C190.236 94.4705 195.015 99.2498 200.911 99.2498V95.2498C197.224 95.2498 194.236 92.2615 194.236 88.5751H190.236ZM200.911 99.2498H212.06V95.2498H200.911V99.2498ZM210.799 98.8019C217.069 103.897 222.553 109.924 227.038 116.67L230.369 114.456C225.66 107.373 219.904 101.046 213.322 95.6976L210.799 98.8019ZM228.703 113.563H224.043V117.563H228.703V113.563ZM224.043 113.563C218.147 113.563 213.369 118.342 213.369 124.238H217.369C217.369 120.551 220.357 117.563 224.043 117.563V113.563ZM213.369 124.238V125.202H217.369V124.238H213.369ZM213.369 125.202C213.369 131.097 218.148 135.876 224.043 135.876V131.876C220.357 131.876 217.369 128.888 217.369 125.202H213.369ZM224.043 135.876H237.808V131.876H224.043V135.876ZM235.919 134.535C237.903 140.223 239.262 146.205 239.914 152.399L243.892 151.98C243.208 145.477 241.78 139.194 239.696 133.218L235.919 134.535ZM241.903 150.19H78.9551V154.19H241.903V150.19ZM80.9441 152.399C81.5959 146.205 82.955 140.223 84.9388 134.535L81.1619 133.218C79.0778 139.194 77.6505 145.477 76.9661 151.98L80.9441 152.399Z" fill="#9000F8" mask="url(#path-8-outside-1_7_1496)"/>
<mask id="path-10-outside-2_7_1496" maskUnits="userSpaceOnUse" x="76.0623" y="168.503" width="156" height="77" fill="black">
<rect fill="white" x="76.0623" y="168.503" width="156" height="77"/>
<path fill-rule="evenodd" clip-rule="evenodd" d="M79.0623 170.503H195.128C199.919 170.503 203.802 174.386 203.802 179.177V180.141C203.802 184.932 199.919 188.816 195.128 188.816H175.851C171.059 188.816 167.176 192.7 167.176 197.491V198.454C167.176 203.245 171.059 207.129 175.851 207.129H228.053C213.291 228.664 188.51 242.792 160.429 242.792C146.874 242.792 134.089 239.5 122.827 233.673C122.596 229.088 118.806 225.442 114.164 225.442H110.007C93.213 212.311 81.6721 192.772 79.0623 170.503Z"/>
</mask>
<path fill-rule="evenodd" clip-rule="evenodd" d="M79.0623 170.503H195.128C199.919 170.503 203.802 174.386 203.802 179.177V180.141C203.802 184.932 199.919 188.816 195.128 188.816H175.851C171.059 188.816 167.176 192.7 167.176 197.491V198.454C167.176 203.245 171.059 207.129 175.851 207.129H228.053C213.291 228.664 188.51 242.792 160.429 242.792C146.874 242.792 134.089 239.5 122.827 233.673C122.596 229.088 118.806 225.442 114.164 225.442H110.007C93.213 212.311 81.6721 192.772 79.0623 170.503Z" fill="#6F00BF"/>
<path d="M79.0623 170.503V168.503H76.8142L77.0759 170.735L79.0623 170.503ZM228.053 207.129L229.702 208.26L231.848 205.129H228.053V207.129ZM122.827 233.673L120.83 233.773L120.888 234.921L121.908 235.449L122.827 233.673ZM110.007 225.442L108.775 227.018L109.318 227.442H110.007V225.442ZM79.0623 172.503H195.128V168.503H79.0623V172.503ZM195.128 172.503C198.814 172.503 201.802 175.491 201.802 179.177H205.802C205.802 173.282 201.024 168.503 195.128 168.503V172.503ZM201.802 179.177V180.141H205.802V179.177H201.802ZM201.802 180.141C201.802 183.828 198.814 186.816 195.128 186.816V190.816C201.024 190.816 205.802 186.037 205.802 180.141H201.802ZM195.128 186.816H175.851V190.816H195.128V186.816ZM175.851 186.816C169.955 186.816 165.176 191.595 165.176 197.491H169.176C169.176 193.804 172.164 190.816 175.851 190.816V186.816ZM165.176 197.491V198.454H169.176V197.491H165.176ZM165.176 198.454C165.176 204.35 169.955 209.129 175.851 209.129V205.129C172.164 205.129 169.176 202.141 169.176 198.454H165.176ZM175.851 209.129H228.053V205.129H175.851V209.129ZM226.403 205.998C211.998 227.013 187.823 240.792 160.429 240.792V244.792C189.197 244.792 214.584 230.316 229.702 208.26L226.403 205.998ZM160.429 240.792C147.202 240.792 134.73 237.58 123.747 231.896L121.908 235.449C133.447 241.42 146.547 244.792 160.429 244.792V240.792ZM124.825 233.572C124.54 227.929 119.877 223.442 114.164 223.442V227.442C117.735 227.442 120.652 230.248 120.83 233.773L124.825 233.572ZM114.164 223.442H110.007V227.442H114.164V223.442ZM111.239 223.867C94.8508 211.053 83.5942 191.99 81.0487 170.27L77.0759 170.735C79.75 193.554 91.5753 213.57 108.775 227.018L111.239 223.867Z" fill="#6F00BF" mask="url(#path-10-outside-2_7_1496)"/>
<mask id="path-12-outside-3_7_1496" maskUnits="userSpaceOnUse" x="223.971" y="168.503" width="21" height="23" fill="black">
<rect fill="white" x="223.971" y="168.503" width="21" height="23"/>
<path fill-rule="evenodd" clip-rule="evenodd" d="M241.796 170.503C241.051 176.858 239.579 182.991 237.465 188.816H234.971C230.001 188.816 225.971 184.787 225.971 179.816V179.503C225.971 174.532 230.001 170.503 234.971 170.503H241.796Z"/>
</mask>
<path fill-rule="evenodd" clip-rule="evenodd" d="M241.796 170.503C241.051 176.858 239.579 182.991 237.465 188.816H234.971C230.001 188.816 225.971 184.787 225.971 179.816V179.503C225.971 174.532 230.001 170.503 234.971 170.503H241.796Z" fill="#6F00BF"/>
<path d="M241.796 170.503L243.782 170.735L244.044 168.503H241.796V170.503ZM237.465 188.816V190.816H238.867L239.345 189.498L237.465 188.816ZM239.809 170.27C239.083 176.47 237.647 182.452 235.585 188.134L239.345 189.498C241.511 183.53 243.019 177.246 243.782 170.735L239.809 170.27ZM237.465 186.816H234.971V190.816H237.465V186.816ZM234.971 186.816C231.105 186.816 227.971 183.682 227.971 179.816H223.971C223.971 185.891 228.896 190.816 234.971 190.816V186.816ZM227.971 179.816V179.503H223.971V179.816H227.971ZM227.971 179.503C227.971 175.637 231.105 172.503 234.971 172.503V168.503C228.896 168.503 223.971 173.428 223.971 179.503H227.971ZM234.971 172.503H241.796V168.503H234.971V172.503Z" fill="#6F00BF" mask="url(#path-12-outside-3_7_1496)"/>
</svg>
